<?xml version="1.0" encoding="utf-8"?>
<!-- Generator: Adobe Illustrator 15.0.0, SVG Export Plug-In . SVG Version: 6.00 Build 0)  -->
<!DOCTYPE svg PUBLIC "-//W3C//DTD SVG 1.1//EN" "http://www.w3.org/Graphics/SVG/1.1/DTD/svg11.dtd">
<svg version="1.1" id="Layer_1" 
   xmlns="http://www.w3.org/2000/svg" 
   xmlns:xlink="http://www.w3.org/1999/xlink" x="0px" y="0px" width="" height="1110.111px" viewBox="0 0 1044.104 1110.111" enable-background="new 0 0 1044.104 1110.111" xml:space="preserve">
   <g>
      <g id="XMLID_2_">
         <g>
            <path fill="#003399" d="M655.72,959.675c0.24,0.71,2.17,7.029-1.92,12.8c-3.52,4.971-10.13,7.561-19.64,7.7
				c-0.021,0-0.05,0-0.08,0c-2.67,0-4.85-2.141-4.891-4.819c-0.039-2.711,2.12-4.94,4.82-4.979c6.04-0.091,10.23-1.36,11.8-3.57
				c1.23-1.739,0.62-4.01,0.62-4.029c-0.859-2.561,0.53-5.341,3.101-6.2C652.09,955.725,654.87,957.114,655.72,959.675z"/>
            <path fill="#003399" d="M786.37,870.555c1.55,0.33,3.07,0.801,4.54,1.42c1.8-1.119,4.78-3.189,8.46-6.47
				c-4.53-2.42-9.19-4.801-13.94-7.141C786.49,862.295,786.82,866.414,786.37,870.555z M775.87,622.175
				c1.91-2.931-0.26-5.33-1.22-6.189c-4.311,2.34-16.931,8.939-30.42,13.88c3.34,0.24,6.1,0.351,7.649,0.279
				c4.351-0.159,9.54,1.11,14.17,3.75C768.37,631.545,772.88,626.744,775.87,622.175z M804.54,901.255
				c6.34-7.149,12.4-14.54,18.13-22.16c-4.59-2.96-9.56-5.95-14.83-8.939c-0.3,1.01-3.97,13.811-3.54,22.8l0.021,0.37
				C804.45,896.024,804.57,898.675,804.54,901.255z M852.16,337.064c3.84-3.921,5.67-7.48,5.14-10.03c-0.7-3.45-5.47-5.51-5.52-5.53
				c-0.28-0.11-0.58-0.27-0.83-0.43c-2.04-1.33-49.98-32.53-54.16-35.66c-1.05-0.79-4.57-0.71-7.49-0.15l-8.95,9.41
				c-1.869,1.96-4.97,2.04-6.93,0.18c-1.96-1.87-2.04-4.97-0.18-6.93l6.45-6.78c-4.551-3.68-10.811-7.55-15.04-7.21
				c-4.29,0.34-10.16,7.13-13.591,12.61c4.311,0.66,8.271,2.09,11.851,4.31c14.45,8.95,16.87,27.22,16.96,27.99
				c0.01,0.04,0.01,0.08,0.02,0.11c1.271,12.53-0.56,22.68-5.439,30.27c20.5-3.819,33.79-4.81,38.66-4.56
				c0.069,0,0.13,0.01,0.199,0.01l5.29,0.5c0.11,0.01,0.221,0.021,0.33,0.04c6.181,0.99,11.761,3.48,15.84,5.29
				c0.98,0.44,2.101,0.94,2.99,1.3c0.26-0.27,0.58-0.6,1.01-1.05C840.57,348.924,844.15,345.254,852.16,337.064z M358.51,359.404
				l17.27-18.71c-4.69-8.341-5.11-17.37-4.62-23.57c-0.28,0.2-0.56,0.42-0.83,0.66C363.72,323.515,359.11,339.805,358.51,359.404z
				 M370.39,153.765c11.51-7.06,23.28-13.37,35.3-18.89c-11.31-7.1-17.59-12.02-21.08-15.5c-2.02,0.63-6.11,2.19-11.44,5.74
				l-2.6,1.74c-6.67,4.48-8.68,5.83-17.91,9.52c-4.67,1.87-7.86,5.62-9.5,8.39c0.7,0.04,1.41,0.07,2.05,0.1
				c7.49,0.32,17.75,0.77,23.55,5.8C369.71,151.484,370.25,152.604,370.39,153.765z M369.7,953.664
				c5.99-12.34,15.94-21.88,28.69-27.119c-1.41-0.58-2.8-1.21-4.15-1.931c-4.05-2.16-7.63-4.851-10.72-7.931l-9.61,18.82
				C370.86,941.234,369.46,947.465,369.7,953.664z M381.2,839.984c11.57-4.851,18.09-11.2,19.49-16.33
				c0.65-2.41-0.23-3.529-0.95-4.149c-0.03-0.03-0.05-0.061-0.08-0.091c-1.22-0.659-2.03-1.1-2.41-1.311
				c-2.4-0.989-19.34-8.109-28.42-15.489c-6.52-5.29-9.79-14.21-8.13-22.189c1.21-5.79,4.82-9.91,9.91-11.33
				c0.11-0.03,0.22-0.05,0.34-0.08c19.37-3.909,23.74-9.601,24.62-12.63c1.42-4.91-3.95-10.34-4.01-10.391
				c-0.12-0.119-0.22-0.26-0.33-0.391c-6.88,1.431-14.69,2.66-23.66,3.681c-0.19,0.021-0.37,0.03-0.56,0.03
				c-0.55,0-1.08-0.101-1.57-0.271l0.02,0.26l0.1-0.01c-0.65,0.08-15.94,2.409-18.49,36.33c0,0.05-0.02,0.09-0.02,0.14
				c-0.01,0.051,0,0.09-0.01,0.141c-2,14.931-2.75,20.51,20.03,29.771c10.1,4.109,15.45,9.62,15.9,16.38
				C383.16,834.875,382.44,837.545,381.2,839.984z M420.49,769.295c5.83-9.881,0.5-26.181-2.04-31.631
				c-0.1-0.199-0.16-0.409-0.22-0.619c-4.72,2.239-10.14,4.25-16.51,6.029c2.49,3.729,5.13,9.59,3.26,16.029
				c-2.69,9.28-13.12,15.65-31.88,19.48c-1.77,0.56-2.5,2.39-2.8,3.84c-0.78,3.72,0.59,9.239,4.71,12.58
				c3.99,3.25,10.02,6.561,15.29,9.17c-1.96-6.521-3.1-14.229-0.07-19.521c1.44-2.5,4.4-5.569,10.31-5.931
				C410.47,778.055,417.2,774.875,420.49,769.295z M416.66,130.104c9.57-3.97,19.29-7.48,29.149-10.48
				c-2.04-3.65-4.439-8.29-6.369-13.06c-0.971-0.59-1.75-1.51-2.11-2.67c-0.021-0.04-2.29-6.56-7.021-7.44
				c-2.5-0.47-4.029,0.32-8.489,2.88c-3.66,2.1-8.67,4.97-16.42,7.7c-5.44,1.93-9.31,3.02-12.14,3.82
				c-0.94,0.26-1.89,0.53-2.65,0.77C393.96,115.325,405.7,123.455,416.66,130.104z M432.75,668.024
				c8.41-19.979,3.32-47.881-1.57-65.74c-3.89,17.46-7.06,31.061-9.66,41.66c0.41,0.391,0.761,0.851,1.021,1.391
				c0.38,0.779,6.87,14.779,2.61,37.76C428.13,678.175,430.57,673.194,432.75,668.024z M440.08,922.784
				c1.84,0.351,3.61,0.78,5.32,1.29c-0.29-1.569-0.5-3.141-0.62-4.729C443.29,920.595,441.72,921.734,440.08,922.784z
				 M419.75,997.274c9.48-5.95,21.6-16.551,21.1-23.36c-0.54-7.311-7.02-15.199-16.55-15.199c-4.44,0-9.18,1.641-14.09,4.88
				c-8.2,5.431-8.66,12.221-7.6,16.95c1.79,7.979,9.22,15.58,16.22,16.59C419.14,997.185,419.44,997.225,419.75,997.274z
				 M431.4,413.794c3.71-3.24,7.47-7.12,9.939-10.44l-22.5-0.51c-1.16-0.029-2.27-0.47-3.14-1.229l-24.2-21.44
				c-0.22-0.189-0.41-0.41-0.58-0.63c-0.82,0.22-1.62,0.43-2.4,0.63c-5.37,1.4-10.89,2.851-12.82,4.54
				c4.76,2.66,25.58,14.66,33.93,25.01L431.4,413.794z M226.53,724.814h15.03h3.83c3.16-15.471,14.81-71.36,23.38-96.65
				c2.19-6.47,3.52-11.811,4.28-16.189l-46.52,9.301V724.814L226.53,724.814z M457.92,556.534c3.37-3.811,7.61-6.15,11.86-7.58
				l-11.45-6.04c-0.33-0.18-0.63-0.39-0.91-0.63c-9.479,8.88-17.2,19.1-17.38,19.319c-1.53,7.181-3.09,14.421-4.65,21.58
				c3.851,10.301,19.771,56.851,6.391,88.641c-5.681,13.49-12.87,25.641-25.92,38.71c-0.38,0.57-0.86,1.03-1.4,1.391
				c-8.14,7.92-18.47,16.22-31.96,25.359c31.37-5.39,41.96-13.96,50.55-23.029c41.09-44.149,31.78-79.931,21.01-121.359l-0.63-2.44
				C449.58,575.635,451.09,564.225,457.92,556.534z M450,894.545l9.59-17.99c-28.41-13.12-52.95-24.439-63.76-29.42l-10.73,20.2
				c-0.85,1.6-1.8,3.13-2.82,4.6c-6.26,16.44,0.57,35.511,16.57,44.03c8.39,4.47,18.02,5.41,27.12,2.63
				c9.101-2.771,16.58-8.92,21.05-17.311l0.21-0.399C447.99,898.725,448.91,896.604,450,894.545z M494.26,108.935
				c1.09-0.15,2.17-0.3,3.25-0.44c-1.62-4.3-4.09-8.84-6.7-13.59c-1.689-3.1-3.43-6.3-4.979-9.51c-10.36,0.92-33.37,3.35-40.21,5.77
				c-0.771,2.98,2.96,13.73,9.89,25.68C468.23,113.415,481.15,110.754,494.26,108.935z M471.98,586.064
				c-2.641-13.67,5.51-23.271,15.039-29.25c-1.899-0.2-15.149-1.271-21.8,6.25c-4.5,5.1-5.279,13.489-2.31,24.93l0.64,2.439
				c2.561,9.87,5.101,19.61,6.91,29.351C472.78,610.984,474.47,598.975,471.98,586.064z M494.94,455.265
				c0.17-0.609,0.46-1.149,0.819-1.63c-5.79-5.24-11.68-8.84-17.26-9.5c-9.93-1.18-12.2,0.75-13.68,2.82
				c-2.73,3.86-4.21,11.71-6.391,24.189c-0.39,2.19-1,5.48-1.8,9.631C489.39,473.814,494.89,455.464,494.94,455.265z
				 M216.73,724.814V620.724l-46.92-9.59c0.74,4.529,2.09,10.141,4.42,17.029c8.58,25.29,20.23,81.181,23.38,96.649h1.8h17.32
				V724.814z M485.22,179.865c3.58-6.4,7.3-12.03,11.09-17c-6.229,1.39-14.43,3.4-23.59,6.13c3.221,1.4,6.16,3.33,8.62,5.8
				C482.89,176.354,484.18,178.064,485.22,179.865z M240.74,774.545v-12.979h-36.77c1.19,4.329,2.47,8.67,3.84,12.96
				c1.75-0.17,3.47-0.311,5.14-0.37C220.53,773.864,230.67,774.064,240.74,774.545z M476.22,983.954
				c17.54-8.061,34.86-13.63,50.16-16.239c-3.21-5.66-5.13-11.88-5.71-18.221c-4.92,4.49-10.8,7.851-17.35,9.851
				c-4.37,1.33-8.851,1.99-13.301,1.99c-4.01,0-8-0.561-11.89-1.62C480.54,969.324,479.15,977.475,476.22,983.954z M258.27,279.035
				c7.54-15.02,15.59-28.51,24.13-40.77c-16.18,1.55-36.12,5.06-40.9,9.67c-1.51,1.76-14.21,16.71-18.95,27.92
				c-2.15,5.07-4.8,10.77-7.24,15.84c6.61-3.46,14.37-7.09,20.56-8.76C245.4,280.365,254.05,279.384,258.27,279.035z
				 M530.86,508.904c0.609-0.69,1.199-1.37,1.81-2.021c-0.189-0.25-0.36-0.52-0.5-0.81c-1.35-2.79-3.189-6.351-5.42-10.36
				c-2.86,2.16-6.73,4.38-11.64,6.641c-6.82,3.149-16.41,3.76-37.42,5.09l-4.011,0.25c-16.93,1.09-23.38,9.7-24.899,12.18
				c-1.41,6.88-2.92,14.16-4.49,21.68c4.65-4.93,10.22-10.229,15.93-14.31c4.59-3.271,10.271-4.98,16.32-5.87
				c0.83-1.07,2.09-1.81,3.54-1.9c0.25-0.01,15.27-1.069,28.66-9.109c2.319-1.391,5.33-0.641,6.72,1.68
				c1.4,2.32,0.64,5.34-1.68,6.73c-0.48,0.29-0.96,0.569-1.44,0.84c1.51-0.22,2.92-0.521,4.17-0.9
				C524.56,516.214,527.62,512.665,530.86,508.904z M452.76,403.174c40.25-27.16,83.811-56.83,114.29-78.359
				c-0.52,0.09-1.04,0.14-1.569,0.14c-3.961,0-8.311-2.37-13.49-7.32c-3.24-3.09-7.811-7.25-12.681-11.62
				c-2.319,2.03-6.3,5.471-12.43,10.62c-21.55,18.07-36.189,27.101-46.07,28.42c-4.27,0.57-10.38,0.761-16.6,0.761
				c-8.49,0-17.18-0.351-21.69-0.57c-3.01,5-10.539,15.36-25.22,24.06c-5.18,3.07-10.42,5.28-15.4,6.99l18.96,16.79l28.291,0.65
				c1.39,0.029,2.699,0.649,3.6,1.71c0.91,1.05,1.32,2.439,1.15,3.819C453.73,400.535,453.33,401.845,452.76,403.174z
				 M511.01,493.455c6.141-2.83,9.25-4.98,10.76-6.28c-5.27-8.66-11.76-18.16-18.68-26.03c-3.43,7.19-14.939,24.131-48.49,30
				c-0.77,3.891-1.63,8.16-2.56,12.75c5.05-2.939,11.89-5.399,21.01-5.979l4.021-0.25C496.23,496.444,505.85,495.834,511.01,493.455
				z M289.95,227.915c9.73-12.76,20.04-24.15,30.94-34.61c-4.94-0.71-10.16-0.78-15.06-0.6c-0.86,0.73-1.96,1.19-3.18,1.19
				c-8.35,0-22.87,0.32-26.25,1.16c-0.23,0.07-5.83,1.85-23.98,27.49c-3.34,4.71-6.16,9.24-8.34,13.08c15-5.59,39.38-7.38,45.2-7.74
				C289.51,227.875,289.73,227.895,289.95,227.915z M525.8,923.944l7.08-13.471c-20.3-9.42-42.87-19.859-63.96-29.609l-12.7,23.989
				c-2.63,7.99-2.319,16.631,0.931,24.561c6.55,4.211,11.88,10.141,16.04,17.851c0.05,0.03,0.1,0.04,0.149,0.061
				c8.391,4.479,18.03,5.41,27.13,2.641c9.09-2.771,16.57-8.92,21.04-17.319l2.391-4.641
				C524.46,926.635,525.09,925.274,525.8,923.944z M549.1,106.205c1.54-5.72,5.271-17.42,11.67-25.42
				c-2.92-0.2-7.52-0.72-14.729-1.96c-7.8-1.35-8.88-0.2-11.03,2.09c-1.109,1.18-2.49,2.65-4.53,4.02
				c-1.76,1.17-4.079,1.08-5.75-0.23c-2.34-1.84-3.659-3.57-4.619-4.83c-1.04-1.36-1.091-1.37-1.631-1.5
				c-1.659-0.42-5.239-0.26-10.649,0.47c-4.66,0.63-8.44,0.92-11.2,1.13c-0.81,0.07-1.65,0.13-2.43,0.2
				c0.08,0.17,0.16,0.35,0.25,0.54c1.479,3.12,3.25,6.36,4.96,9.48c3.08,5.62,6.229,11.42,8.08,17.19
				C523.83,105.825,537.96,105.774,549.1,106.205z M277.45,818.354c7.57-0.739,9.13-8.6,9.43-12.289
				c-0.52-13.381-7.34-17.311-11.38-18.471c-6.12-1.75-42.53-4.391-62.18-3.649c-0.76,0.029-1.54,0.09-2.31,0.141
				c4.07,11.619,8.76,23.01,14.05,34.14c25.72,0.28,42.64,0.37,49.45,0.261c0.08-0.011,0.14-0.03,0.22-0.04
				C274.87,818.425,275.88,818.335,277.45,818.354z M114.95,475.475c14.26,4.851,48.58,8.351,83.02-49.01l6.46-29
				c-12.24,4.101-30.26,7.57-32.86,8.061c-0.04,0.01-0.07,0.01-0.11,0.01c-0.04,0.01-0.07,0.02-0.11,0.03c-0.02,0-0.04,0-0.06,0
				c-9.76,1.369-21.16,3.39-26.39,4.819c0.7,3.78,2.15,11.28,5.45,13.2c0.39,0.22,1.56,0.9,4.32-0.06
				c2.46-0.851,5.15,0.359,6.14,2.76c1,2.399-0.06,5.16-2.4,6.28c-4.98,2.409-18.68,9.18-22.14,11.659
				c-1.07,0.761-2.11,1.36-3.11,1.931c-3.59,2.05-7.65,4.359-13.62,16.79C116.54,469.174,115.25,473.395,114.95,475.475z
				 M313.63,740.604c-0.15-16.069,7.7-30.109,23.22-40.449c16.79-11.189,20.35-19.46,20.98-23.391c0.48-3.05-0.54-4.779-0.55-4.79
				c-0.36-0.46-0.61-0.97-0.78-1.5c-3.79-1.399-7.67-2.939-11.59-4.64c-0.67,5.359-3.72,14.02-15.22,22.279
				c-1.1,0.79-2.28,1.609-3.5,2.46c-8.54,5.91-19.16,13.261-20.56,24.79C304.77,722.534,307.46,730.994,313.63,740.604z
				 M295.29,855.765c1.82-2.05,2.45-5.271,1.86-9.561c-0.01-0.079-0.02-0.159-0.03-0.25c-0.51-5.89-2.55-10.369-6.08-13.319
				c-4.34-3.641-10.08-4.359-13.17-4.46c-0.18,0.01-0.37,0.029-0.56,0.04c-1.78,0.08-5.47,0.12-11.04,0.12
				c-8.12,0-20.28-0.091-36.34-0.261c5.46,10.609,11.45,20.96,17.96,30.971c5.54,0.09,19.17,0.29,33.61,0.54
				C288.2,859.704,292.97,858.385,295.29,855.765z M226.53,611.274l47.43-9.479c-0.09-4.42-0.95-6.54-1.17-7.021
				c-0.48-0.57-0.56-0.939-0.73-1.71l-50.44-227.73l-14.08,63.24c-0.03,0.439-0.12,0.88-0.28,1.3l-36.32,163.19
				c-0.17,0.771-0.24,1.14-0.72,1.71c-0.22,0.449-0.98,2.34-1.15,6.199l47.66,9.75v-163.87c0-2.699,2.19-4.899,4.9-4.899
				s4.9,2.2,4.9,4.899V611.274L226.53,611.274z M190.83,743.194c0,4.72,3.85,8.569,8.58,8.569h42.15c4.73,0,8.57-3.851,8.57-8.569
				c0-4.729-3.84-8.58-8.57-8.58h-42.15C194.68,734.614,190.83,738.465,190.83,743.194z M288.18,884.015
				c1.31-9.42-5.46-13.521-7.82-14.649c-9.82-0.17-19.19-0.311-25.79-0.41c6.18,8.83,12.76,17.391,19.73,25.641
				C286.13,894.125,287.3,888.574,288.18,884.015z M187.9,364.555c0.68,2.08-0.11,4.36-1.92,5.58
				c-0.61,0.42-14.98,10.061-24.08,12.96c-0.27,1.221,0.38,5.15,3.2,9.021c1.88,2.59,3.88,3.859,4.84,3.739
				c11.37-2.149,30.38-6.54,37.04-9.859l9.87-44.34c0.25-1.12,0.87-2.08,1.71-2.761c0.85-0.68,1.92-1.079,3.07-1.079
				c2.3,0,4.29,1.6,4.78,3.84l2.66,12.01c7.31-24.1,15.37-45.32,24.15-64.21c-4.08,0.56-9.31,1.47-14.8,2.94
				c-10.68,2.88-27.8,13.05-31.35,15.2c-0.09,0.32-0.2,0.62-0.34,0.9c-0.22,0.7-1.02,3.54-3,13.46
				c-2.75,13.72-13.45,29.729-25.54,38.97c1.14,0.21,2.72,0.33,4.87,0.25C185.26,361.095,187.22,362.475,187.9,364.555z
				 M542.46,1019.074c8.89,0,16.771-0.279,24.88-0.891c-0.99-0.93-1.89-1.84-2.76-2.72c-5.12-5.181-8.51-8.601-23.17-8.601
				c-0.69,0-1.4,0.011-2.13,0.021c-10.12,0.229-21.88,5.21-32.07,10.439C518.89,1018.484,530.7,1019.074,542.46,1019.074z
				 M309.47,843.784c-0.06,0.979-0.08,1.96-0.06,2.931c0.28,12.891,7.51,24.649,18.87,30.699c8.39,4.471,18.02,5.41,27.12,2.631
				c7.38-2.25,13.69-6.721,18.2-12.811c0.57-1.37,1.2-2.721,1.91-4.061l7.45-13.33c-4.23,1.649-9,3.109-14.35,4.29l-10.4,7.88
				c-0.87,0.67-1.91,1-2.96,1c-1.08,0-2.16-0.359-3.06-1.08c-1.75-1.399-2.33-3.81-1.39-5.859c0.05-0.12,1.54-3.75,0.15-8.521
				c-2.59,0.561-7.94,1.5-14.81,1.5c-2.41,0-5.01-0.109-7.74-0.399C321.68,847.944,315.34,846.305,309.47,843.784z M121.7,489.075
				c-0.05,0.01-5.26,0.6-11.28,10c-7.51,11.74-8.93,19.56-10.57,28.62c-0.61,3.34,0.39,12.39,1.16,17.319
				c0.01,0.021,0.71,3.91,3.95,5.67c3.2,1.73,8.31,1.19,14.76-1.579c20.76-8.891,56.04-49.881,68.64-79.73
				c0.03-0.07,0.08-0.13,0.11-0.2l3.84-17.26c-22.4,28.04-44.33,35.49-60.78,35.85c-4.21,0.54-8.36,1.09-10.04,1.311v0.01
				C121.49,489.084,121.56,489.095,121.7,489.075z M320.74,902.914c-4.01,7.521-5.17,16.15-3.33,24.431
				c4.27,1.88,9,2.55,15.19,2.851c0.11,0,0.23,0.01,0.34,0.029c22.84,2.721,24.96,22.689,26.51,37.271
				c0.58,5.381,2.39,7.939,4.1,9.181c0.15-1.74,0.35-3.439,0.62-5.12c-0.03-0.05-0.05-0.09-0.08-0.141
				c-6.03-13.029-5.62-27.779,1.13-40.439l11.63-22.779c-4.45-7.319-6.77-15.8-6.65-24.399c-3.64,2.42-7.64,4.319-11.94,5.63
				c-4.38,1.33-8.85,1.989-13.3,1.989c-5.6,0-11.15-1.05-16.43-3.119L320.74,902.914z M581.32,491.984
				c4.359-4.17,6.529-9.73,7.609-14.33c-11.939,6.35-23.739,13.2-35.17,20.59c1.74-0.021,3.63,0.03,5.69,0.16
				C568.84,499.035,576.2,496.875,581.32,491.984z M342.29,708.305c-19.99,13.33-21.33,30.439-16.76,45.229
				c2.88-12.609,10.08-30.641,30.82-41.851c26.53-14.35,24.2-29.34,22.64-34.039c-3.53-0.961-7.3-2.051-11.25-3.311
				c0.05,1.21,0,2.54-0.23,3.97C365.94,688.104,357.46,698.194,342.29,708.305z M329.62,185.245c10.64-9.5,21.8-18.25,33.47-26.64
				c-0.26-0.15-0.51-0.33-0.75-0.54c-3.22-2.79-12.2-3.18-17.56-3.41c-4.58-0.2-7.91-0.35-10.05-1.69
				c-0.89,0.14-2.72,0.59-5.97,1.98c-3.56,1.53-3.9,2-5.02,3.55c-1.37,1.9-3.45,4.77-9.58,9.54c-3.1,2.41-6.82,5.09-10.43,7.68
				c-3.26,2.35-7.43,5.35-10.75,7.95c0.89-0.06,1.78-0.12,2.63-0.18c9.26-0.67,21.96-1.58,33.15,1.43
				C329.06,184.995,329.34,185.115,329.62,185.245z M574.25,319.705c4.32-3.07,8.3-5.94,11.88-8.55
				c8.41-6.141,16.13-11.79,23.2-17.07c-0.19-0.35-0.36-0.72-0.46-1.13l-7.72-31.34c-4.721,9.31-13.96,29.99-18.9,41.06
				c-2.66,5.96-4.77,10.681-5.85,12.98l-0.08,0.16C575.78,316.984,575.12,318.375,574.25,319.705z M312.09,898.305l7.76-14.561
				c-7.89-5.25-13.86-12.8-17.21-21.5c0,0.011-0.01,0.021-0.02,0.03c-2.25,2.54-5.29,4.409-9.05,5.59
				c3.21,4.24,5.39,10.09,4.3,17.66c-0.02,0.069-0.03,0.149-0.04,0.22c-1.26,6.521-4.33,14.801-15.83,17.65
				c3.44,3.81,6.96,7.55,10.57,11.199c0.41-1.739,1.75-3.141,3.51-3.609c1.91-0.49,3.93,0.199,5.13,1.771
				c1.97,2.569,3.8,4.75,5.55,6.62C306.8,912.085,308.6,904.854,312.09,898.305z M604.21,949.024l2.21-4.141
				c-3.5-1.5-6.41-2.84-8.68-4c-4.61-2.351-27.21-12.931-55.94-26.271l-8.89,17.3c-4.62,11.391-3.061,24.421,4.25,34.421
				c2.53-0.2,4.979-0.301,7.34-0.301c8.68,0,16.271,1.341,22.55,3.99c5.7,2.46,10.55,4.851,14.74,7.109
				c6.64-3.3,12-8.49,15.521-15.09l6.229-11.681C603.76,949.914,603.98,949.465,604.21,949.024z M322.81,357.845
				c1.42-10.2,5.6-25.41,12.52-38.489c-0.64-0.421-1.28-0.891-1.92-1.44c-1.75-1.3-3.13-2.69-4.2-4.05
				c-4.01,4.92-10.5,12.819-19.59,23.609c-13.08,15.23-19.49,19.261-23.58,20.16c-1.55,11.75-1.02,22.601,0.97,32.55
				c0.87-0.97,2.1-1.569,3.43-1.63C315.79,387.384,321.05,370.475,322.81,357.845z M595.08,111.415
				c3.4-3.96,13.89-15.62,24.78-22.13c-13.391-4.04-35.38-8.02-45.021-6.99c-6.18,0.66-12.49,13.77-15.7,24.46
				c4.341,0.31,7.94,0.65,10.681,0.91l1.689,0.16c0.04,0.01,0.08,0.01,0.13,0.02C579.99,108.845,587.8,110.055,595.08,111.415z
				 M591.48,982.835c3.659,2.329,6.6,4.43,9.05,6.18c1.33,0.95,2.479,1.771,3.51,2.46c-2.521-4.8-4.15-9.979-4.83-15.3
				C596.9,978.675,594.31,980.904,591.48,982.835z M323.82,441.314c-0.04-0.471-0.77-8.4,2.05-16.021
				c-16.17-1.09-30.15-16.88-36.18-24.79c12.96,40.64,49.75,64.03,59.83,69.79c0.49,0.28,0.93,0.64,1.29,1.07
				c0.02,0.02,0.04,0.04,0.06,0.06c8.79-5.85,37.8-25.16,73.31-49.01l-18.229-3.4c-1.29-0.239-2.42-0.989-3.16-2.069
				c-4.6-6.801-19.7-16.551-28.54-21.761c0.24,2.15,0.6,4.32,0.93,6.24c0.51,3.05,0.95,5.68,0.95,7.93
				c0,5.61-4.09,10.761-8.42,16.211c-2.18,2.75-4.44,5.59-6.07,8.39c-4.3,7.36-5.76,18.12-5.78,18.229
				c-0.2,1.561-1.14,2.92-2.53,3.67c-0.72,0.391-1.52,0.591-2.33,0.591c-0.72,0-1.45-0.16-2.12-0.49l-22.3-10.72
				C325.04,444.504,323.99,443.015,323.82,441.314z M296.39,753.425c3.59-10.359,3.12-14.95-2.24-21.2
				c-3.81-3.83-8.22-7.64-12.1-7.189c-3.39,0.399-7.3,4.08-11.31,10.66c-0.1,0.159-0.21,0.319-0.33,0.47
				c-7.13,9.101-11.79,14.261-11.99,14.479c-0.04,0.051-0.1,0.08-0.14,0.131c-1.63,3.561-4.35,6.521-7.74,8.43v15.891
				c7.12,0.46,13.75,1.03,18.87,1.63c0.37-0.271,0.78-0.51,1.24-0.67c0.05-0.021,6.09-2.17,12.02-6.021l1.06-0.681
				C289.46,765.654,292.93,763.414,296.39,753.425z M292.88,818.975c17.34,21.83,41.67,21.21,52.11,19.71
				c-4.69-4.229-11.8-7.859-21.06-10.68c-9.14-2.78-14.9-7.95-17.13-15.36c-4.82-16.039,9.54-36.699,14.7-43.409
				c-1.23-2.37-2.32-4.71-3.26-7.03c-0.34-0.229-0.67-0.489-0.96-0.819c-3.67-4.149-6.84-8.141-9.56-12.021
				c-0.49,2.34-1.19,4.75-2.07,7.271c-4.57,13.189-10.42,16.96-16.61,20.95l-1.03,0.67c-1.38,0.899-2.75,1.699-4.07,2.43
				c5.66,3.41,12.26,10.54,12.75,25.32c0,0.17,0,0.34-0.01,0.51C296.38,810.664,295.19,815.154,292.88,818.975z M338.66,618.595
				c9.8,4.569,31.23,13.41,43.43,18.37c13.78-31.771,32.45-126.149,39.58-163.84c-8.03,7.98-15.23,13.4-48.81,34.95
				c7.72,23.359,1.05,41.52-4.68,57.089c-0.97,2.66-1.9,5.171-2.72,7.641c-0.04,0.101-0.07,0.21-0.12,0.311
				C357.4,592.435,347.63,607.454,338.66,618.595z M323.97,680.154c10.28-7.391,11.33-14.261,11.34-16.7
				c0-0.01-0.22-1.21-0.94-2.529c-2.83-1.42-5.66-2.92-8.46-4.511c0.03,0.939-0.04,1.95-0.28,3.021
				c-1.04,4.631-4.7,8.5-10.89,11.471l-1.61,0.779c-7.39,3.511-15.77,7.49-18.51,15.75c-1.83,5.5-1,12.631,2.46,21.261
				c3.9-12.58,15.08-20.33,23.53-26.181C321.78,681.694,322.91,680.914,323.97,680.154z M606.69,496.694
				c2.699-5.4,8.109-11.601,13.439-16.95c-2.26,0.22-4.649,0.35-7.22,0.35c-4.29,0-9.021-0.35-14.2-1.189
				c-1.33,6.17-4.22,14.02-10.56,20.1c-7.19,6.91-17.061,10.01-29.351,9.18c-13.58-0.899-16.34,2.29-20.52,7.131
				c-3.62,4.199-8.141,9.43-18.87,12.76c-6.391,1.979-14.44,2.02-22.96,2.06c-11.59,0.061-23.57,0.11-30.53,5.09
				c-0.16,0.11-0.33,0.24-0.49,0.351l15.061,7.95c22.55,11.02,40.17,2.479,47.13-4.381c17.24-19.56,35.54-21.02,48.91-22.09
				c4-0.319,7.78-0.63,10.85-1.37c11.23-2.71,13.64-7.58,18.46-17.27L606.69,496.694z M363.38,824.755
				c-28.36-11.53-28.45-22.2-26.07-40.03c2.33-30.479,14.75-40.43,22.03-43.659c0.38-0.58,0.88-1.091,1.51-1.471
				c21.54-13.279,36.34-24.489,47.01-34.979c8.37-17.979,9.55-32.29,8.78-41.811c-4.96,17.859-6.7,18.899-8.22,19.82
				c-0.77,0.449-1.64,0.689-2.52,0.689c-0.23,0-0.45-0.011-0.67-0.04c-0.74-0.101-6.7-0.96-15.76-3.021
				c0.34,3.18,0.22,7.04-1.04,11.319c-3.21,10.96-12.43,20.63-27.41,28.729c-23.25,12.561-26.26,35.189-27.55,44.851
				c-0.4,3-0.76,5.71-2.24,7.359c-0.17,0.351-0.36,0.689-0.62,1c-5.17,6.271-17.83,25.011-14.42,36.311
				c1.25,4.13,4.71,7.011,10.6,8.811c16.95,5.16,27.84,12.859,32.34,22.859c0.76,1.681,1.27,3.311,1.62,4.87
				c0.22-0.189,0.46-0.359,0.72-0.51c4.9-2.82,12.01-8.961,11.72-13.141C373.02,830.114,369.44,827.215,363.38,824.755z
				 M337.96,976.715c-1.18,8.561-2.3,16.641,29.05,33.359c1.46,0.78,2.84,1.511,4.19,2.221c-4.12-6.521-7.02-14.381-7.7-23.841
				c-0.03-0.409-0.05-0.819-0.07-1.229c-5.47-1.311-12.39-6.14-13.72-18.699c-1.72-16.11-3.88-26.811-17.76-28.551
				c-11.54-0.561-19.64-2.439-28.22-9.93c2.13,6.35,6.79,13.449,16.74,17.891c8.18,2.979,19.14,7.079,18.01,24.229
				C338.37,973.755,338.16,975.265,337.96,976.715z M594.16,409.194c7.2-3.271,14.26-6.38,21.17-9.33l-6.86-13.24
				c-8.26,4.9-15.43,9.08-19.95,11.7C591.02,402.024,592.9,406.075,594.16,409.194z M617.29,286.165l13.44-2.35l-8.91-24.6
				c-0.011-0.02-0.011-0.04-0.021-0.06c-3.75-0.81-8.149-1.73-11.7-2.21L617.29,286.165z M633.15,261.714l3.859,10.67
				c2.98-2.53,5.71-4.93,8.21-7.24C641.88,264.095,637.72,262.865,633.15,261.714z M624.39,396.035
				c7.391-3.08,14.601-5.98,21.63-8.72c-0.069-0.12-0.149-0.23-0.22-0.36l-9.08-17.51c-6.489,4.069-13.31,8.229-19.83,12.14
				L624.39,396.035z M667.26,238.555c4.84-9.01,6.931-18.16,6.55-28.71c-0.149-1.32-1.079-9.01-2.079-13.52
				c-0.091-0.18-0.16-0.35-0.24-0.53c-0.42-0.94-1.061-2.36-14.13-7.32c-4.48-1.7-9.79-4.18-15.95-7.05
				c-12.05-5.62-27.72-12.93-44.37-17.43l29.05,36.02c0.94,1.16,1.3,2.68,0.97,4.13c-0.319,1.46-1.279,2.69-2.62,3.34l-29.569,14.53
				c-0.69,0.33-1.431,0.5-2.16,0.5c-1.61,0-3.17-0.8-4.1-2.23c-0.061-0.07-6.841-10.01-22.351-14.57
				c-4.75-1.4-8.399-2.52-11.31-3.56l-5.21,20.83c6.39,2.93,18.439,9.81,25.34,22.26c5.08-7.08,9.79-13.51,11.35-15.3
				c2.971-3.39,6.33-4.53,12-4.06c4.761,0.4,11.91,1.93,24.88,4.72l4.141,0.89C651.11,236.564,663.7,238.154,667.26,238.555z
				 M662.67,110.604c4.15-1.65,8.21-2.84,12.38-3.59c-4.96-2.79-10.33-5.72-14.13-7.52c-8.05-3.82-14.29-4.92-27.79-4.92
				c-6.42,0-18.35,10.06-26.91,19.13c14.08,3.16,25.94,6.88,35.86,10.71C645.08,120.595,651.03,115.265,662.67,110.604z
				 M654.58,257.915c3.26-2.19,5.57-6.51,6.99-10.2c-6.38-0.88-18.08-2.76-36.17-6.64l-4.15-0.89c-12.16-2.61-19.5-4.19-23.64-4.53
				c-2.94-0.25-3.23,0.08-3.801,0.74c-2.54,2.91-17.329,23.68-26.649,36.94c-1.561,2.22-4.62,2.75-6.83,1.19
				c-2.22-1.55-2.75-4.61-1.19-6.83c0.95-1.35,4.83-6.87,9.41-13.31c-0.04-0.1-0.09-0.19-0.13-0.29
				c-6.36-16.82-25.82-23.47-26.01-23.53c-2.431-0.81-3.83-3.36-3.21-5.84l6.79-27.14c-1.82-1.53-3.181-3.35-4.78-5.87
				c-3.87-6.07-7.87-18.42-8.32-19.81c-0.819-2.58,0.601-5.34,3.181-6.16c2.579-0.82,5.329,0.59,6.159,3.17
				c1.101,3.44,4.55,13.3,7.24,17.54c2.86,4.48,3.22,5.05,19.56,9.86c13.141,3.86,21.171,10.94,25.021,15.18l20.57-10.1
				l-41.15-51.01c-1.61-1.04-2.52-2.98-2.15-4.99l1.551-8.49c-4.5-0.84-15.67-2.14-29.13,2.13c-22.86,7.24-42.301,27.35-56.29,58.19
				c-0.311,1.2-0.71,2.4-1.21,3.6c-7.98,19.14-7.87,22.27-4.04,26.43c1.84,1.99,1.72,5.09-0.271,6.93
				c-1.99,1.83-5.09,1.71-6.93-0.28c-8.67-9.39-5.21-19.1,2.189-36.85c0.061-0.15,0.101-0.29,0.16-0.43
				c0.03-0.59,0.15-1.18,0.4-1.74c0.13-0.29,0.26-0.57,0.39-0.85c1.29-6.05-1.649-10.23-3.74-12.32
				c-4.949-4.96-14.779-7.96-25.56-3.49c-19.22,7.68-41.37,17.5-60.44,32.2c-26.86,20.72-49.19,46.6-49.41,46.86
				c-0.52,0.61-1.17,1.05-1.86,1.33c-17.33,21.27-38.3,54.05-44.86,73.729c-0.01,0.03-0.02,0.061-0.03,0.101
				c-1.57,4.37-2.83,8.64-3.86,12.81c2.84-2.31,7.23-6.51,13.78-14.13c16.31-19.37,24.17-29.31,24.25-29.41
				c1.26-1.6,3.38-2.37,5.32-1.75c1.93,0.61,3.27,2.23,3.4,4.25c0.08,0.45,0.74,3.37,4.23,5.91c0.13,0.09,0.25,0.19,0.36,0.29
				c0.26,0.22,0.48,0.4,0.67,0.55c2.94-4.24,6.23-8,9.87-10.939c0.12-0.091,0.25-0.16,0.37-0.24c9.24-7.75,22.92-13.44,40.93-16.96
				c40.71-7.97,55.391-9.35,56-9.41c2.681-0.26,5.08,1.74,5.32,4.44c0.25,2.69-1.74,5.08-4.44,5.32c-0.14,0.02-14.939,1.43-55,9.27
				c-15.57,3.05-35.77,9.52-43.6,23.06c-0.28,0.5-0.51,0.87-0.68,1.101c-0.45,0.63-1.32,1.84-2.67,2.88
				c-7.79,12.64-12.55,29.46-13.97,39.71c-3.02,21.689-14.06,34.479-32.86,38.13c2.79,3.37,6.34,7.13,10.29,10.359
				c1.8,0.011,11.15-1.069,20.45-23.38c1.04-2.5,3.91-3.68,6.41-2.64s3.68,3.91,2.64,6.4c-6.24,14.979-13.08,22.439-18.85,26.1
				c2.69,1.02,5.42,1.55,8.11,1.37c12.51-0.87,19.05-19.101,19.99-55.75c0.28-11.141,2.34-38.24,15.21-49.41
				c4.01-3.48,8.78-5.02,13.77-4.44c1.42,0.171,2.7,0.95,3.5,2.141c0.8,1.189,1.04,2.67,0.65,4.05c-0.04,0.14-4.03,15.21,4.07,26.2
				c1.39,1.89,1.25,4.51-0.35,6.229l-24.89,26.98c-0.76,0.82-1.74,1.32-2.77,1.5c-1.42,20.09-5.65,41.35-18.57,49.189
				c-0.27,0.54-0.63,1.04-1.1,1.471c-3.72,3.39-4.65,9.87-4.73,14l13.91,6.68c1.06-4.45,2.87-10.4,5.77-15.36
				c1.98-3.399,4.47-6.529,6.87-9.55c2.8-3.529,6.29-7.92,6.29-10.109c0-1.431-0.4-3.79-0.82-6.301
				c-1.27-7.56-2.86-16.96,1.71-23.479c3.4-4.86,10.21-6.64,18.83-8.88c7.71-2.01,17.3-4.51,26.26-9.82
				c17.13-10.15,22.86-22.57,22.92-22.689c0.19-0.41,4.141-9.5-1.069-21.65c-1.07-2.48,0.09-5.37,2.569-6.43
				c2.49-1.07,5.37,0.08,6.44,2.569c4.01,9.37,3.83,17.54,2.89,22.91c8.9,0.37,25.311,0.84,33.45-0.25
				c7.74-1.03,21.56-9.85,41.07-26.21c5.31-4.46,9-7.63,11.359-9.689c-9.68-8.581-18.529-16.26-18.689-16.4
				c-2.04-1.77-2.26-4.87-0.48-6.91c1.771-2.05,4.87-2.26,6.91-0.49c1.13,0.98,27.71,24.06,39.07,34.91
				c4.35,4.15,6.29,4.561,6.68,4.601c0.6-0.48,1.521-2.431,2.021-3.5l0.079-0.16c1.04-2.221,3.131-6.891,5.771-12.811
				c13.14-29.41,20.29-44.9,22.99-47.979c5.229-5.98,14.76-3.91,29.18-0.77l3.54,0.76C640.37,253.115,650.37,256.435,654.58,257.915
				z M654.62,1025.074c1.54-0.431,3.229-1.101,4.79-1.88c-4.851-0.79-11.021-1.761-16.83-2.641c-2.21-0.34-3.91-2.12-4.141-4.351
				c-0.229-2.22,1.07-4.311,3.171-5.09c0.06-0.021,8.369-3.351,23.67-16.7c-4.261-2.38-7.69-3.641-11.2-3.641
				c-4.75,0-10.101,2.28-17.33,7.381c-8.29,5.84-12.521,7.76-22.78,8.399c-4.37,0.26-7.59-1.87-10.66-3.91
				c-0.84-0.56-1.7-1.14-2.6-1.67c-1.771-1.05-3.67-2.41-5.88-3.989c-6.061-4.32-15.21-10.859-31.62-17.939
				c-5.04-2.131-11.35-3.21-18.71-3.21c-19.48,0-45.8,7.609-72.23,20.89c-8.21,4.13-14.88,7.091-20.39,9.061
				c-2.25,0.91-4.61,1.63-7.01,2.149c-3.59,0.881-6.891,1.311-10.09,1.311c-4,0-7.49-0.649-11.19-1.351
				c-1.92-0.359-3.91-0.729-6.16-1.06c-11-1.58-21.7-12.19-24.38-24.141c-2.42-10.79,1.86-20.729,11.76-27.271
				c6.53-4.32,13.09-6.511,19.49-6.511c15.16,0,25.47,12.601,26.32,24.29c0.72,9.83-8.681,19.551-16.681,25.96
				c3.061,0.061,5.99-0.21,8.721-0.779c1.77-0.439,3.649-1.021,5.729-1.76c2.891-1.19,5.07-2.561,6.82-3.66
				c0.68-0.431,1.29-0.811,1.82-1.12c0.199-0.109,20.319-12.479,9.08-36.811c-7.431-16.109-19.841-23.609-39.04-23.609
				c-3.921,0-8.07,0.3-12.7,0.931c-26.72,3.6-43.24,25.869-41.1,55.39c1.82,25.08,23.32,36.811,36.1,41.601
				c5.5,1.58,11.729,2.38,18.52,2.38c20.32,0,40.65-7.029,49.32-10.04c0.95-0.33,1.76-0.609,2.42-0.83c2.13-0.71,6.21-3,10.94-5.649
				c12.6-7.069,31.64-17.739,48.5-18.119c0.8-0.021,1.58-0.021,2.34-0.021c18.75,0,24.279,5.59,30.14,11.5
				c1.03,1.05,2.101,2.13,3.271,3.189c0.699,0.64,1.399,1.29,2.1,1.939c6.32,5.84,12.28,11.359,21.63,11.989
				c5.61,0.37,16.58,0.62,27.311,0.62C643.83,1026.305,652.59,1025.645,654.62,1025.074z M640.27,463.615
				c5.87-2.891,13.721-10.96,19.671-17.83c-18.15,6.88-36.94,14.85-55.61,24.01C623.33,471.964,634.1,466.665,640.27,463.615z
				 M654.96,383.895c6.93-2.619,13.67-5.069,20.22-7.359l-12.75-24.21c-4.41,3.31-10.52,7.43-17.399,11.859l9.47,18.261
				C654.74,382.904,654.88,383.395,654.96,383.895z M672.5,1016.034c1.84,1.229,2.63,3.54,1.93,5.63
				c-2.88,8.631-15.72,12.439-17.18,12.851c-4.7,1.32-19.67,1.591-31.39,1.591c-10.92,0-22.16-0.261-27.96-0.641
				c-8.681-0.58-15.091-4.12-20.48-8.33c-11.9,1.21-22.47,1.74-34.96,1.74c-15.63,0-31.37-1.011-46.76-3
				c-0.891-0.11-1.681-0.48-2.351-0.99c-4.43,2.471-7.989,4.399-10.62,5.271c-0.63,0.21-1.399,0.479-2.31,0.79
				c-9.14,3.17-30.56,10.59-52.53,10.59c-7.56,0-14.57-0.909-20.86-2.67c-3.86-0.41-13.92-3.76-44.63-20.141
				c-34.64-18.47-35.98-30.09-34.15-43.35c0.19-1.351,0.37-2.62,0.45-3.851c0.65-9.931-3.72-11.521-11.66-14.399
				c-0.1-0.04-0.28-0.11-0.38-0.15c-14.72-6.5-21.16-18.13-23.44-28.239c-0.38-0.21-0.75-0.45-1.07-0.761
				c-19.22-18.51-36.31-39.109-50.96-61.279c-0.04-0.069-0.09-0.131-0.13-0.2c-17.45-26.449-31.42-55.119-41.35-85.159
				c-2.09-6.311-4.02-12.761-5.75-19.16c-0.13-0.5-0.16-1-0.14-1.479c-7.41-2.38-12.79-9.319-12.79-17.5
				c0-5.99,2.89-11.3,7.34-14.66c-2.45-12.029-14.78-71.729-23.42-97.22c-8.88-26.2-5.29-37.53-3.41-41.12l19.71-88.561
				c-16.58,24.19-40,48.91-57.67,56.48c-5.23,2.24-9.97,3.37-14.18,3.37c-3.46,0-6.57-0.761-9.29-2.29
				c-7.32-4.08-8.66-11.84-8.79-12.71c-0.22-1.431-2.21-14.511-1.12-20.54c1.68-9.24,3.42-18.79,11.97-32.15
				c2.79-4.37,5.61-7.42,8.2-9.55c-0.16-0.06-0.3-0.11-0.4-0.15c-1.9-0.63-3.39-2.029-4.19-3.92c-0.69-1.64-2.53-5.979,4.92-21.47
				c6.75-14.04,11.96-17.85,17.6-21.06c0.87-0.5,1.61-0.921,2.27-1.391c2.21-1.59,7.05-4.2,11.78-6.63
				c-4.75-4.94-6.25-12.97-7.12-17.62c-0.15-0.8-0.34-1.79-0.44-2.18c-0.63-1.45-0.56-3.13,0.18-4.55
				c0.97-1.84,2.13-4.061,22.13-7.45c-2.25-3.13-3.85-6.76-4.58-10.01c-1.86-8.341,2-12.7,6.24-14.011
				c3.13-0.96,7.48-3.18,11.56-5.51c-0.76-0.49-1.43-1.04-2.03-1.66c-2.19-2.279-2.82-5.01-2.68-6.819
				c0.12-1.61,1.04-3.061,2.44-3.86c11.77-6.79,23.46-22.91,26.07-35.93c1.23-6.19,2.21-10.62,2.88-13.16
				c0.32-1.2,0.82-3.04,2.09-4.26c0.09-0.341,0.21-0.681,0.37-1.011c0.09-0.17,8.8-17.14,14.06-29.56
				c3.6-8.51,10.83-18.4,15.73-24.62c-0.48-2.86,1.09-6.76,3.95-12.29c2.94-5.68,7.02-12.33,11.22-18.25
				c20.59-29.07,27.14-30.71,29.6-31.32c1.05-0.27,2.59-0.48,4.43-0.66c1.59-3.92,7.31-8.32,19.56-17.13
				c3.53-2.54,7.18-5.17,10.13-7.47c5.03-3.91,6.49-5.92,7.66-7.54c1.89-2.63,3.45-4.4,9.1-6.82c1.76-0.75,4.94-2.11,8.12-2.64
				c0.85-2.25,2.1-4.24,2.89-5.38c3.32-4.81,7.98-8.59,13.11-10.64c8.26-3.31,9.61-4.21,16.09-8.56l2.62-1.75
				c5.28-3.52,9.63-5.45,12.57-6.49c0.47-6.28,4.65-7.46,10.29-9.05c2.7-0.77,6.4-1.81,11.55-3.63c6.91-2.44,11.28-4.95,14.8-6.96
				c4.83-2.78,9.01-5.18,15.18-4.02c1.53,0.29,2.92,0.78,4.17,1.41c0.05-0.17,0.09-0.33,0.14-0.49c0.9-2.62,2.771-4.6,5.261-5.57
				c7.949-3.09,32.97-5.6,42-6.42c0.149-0.46,0.34-0.9,0.6-1.35c2-3.46,5.82-3.75,11.59-4.19c2.79-0.21,6.26-0.48,10.64-1.07
				c13.74-1.85,17.391-0.43,21.381,4.79c0.029,0.05,0.069,0.09,0.1,0.14c3.83-4.06,7.8-6.96,19.71-4.9
				c11.69,2.02,15.59,1.95,16.21,1.92c-0.06,0.01-0.09,0.02-0.09,0.02l0.8,5.66c2.69-2.28,5.73-3.85,9.17-4.21
				c13.21-1.42,49.61,5.46,60.82,12.23c12.17,0.07,20.45,1.09,30.5,5.85c9.41,4.46,27.1,14.97,27.85,15.41
				c0.22,0.13,0.41,0.29,0.61,0.45c4.939,0.51,10.26,1.48,16.18,2.92c14.36,3.51,22.55,9.8,27.19,16.14
				c34.72,22.22,65.159,49.98,90.609,82.71c28.55,36.72,49.431,77.91,62.091,122.44c2.6,1.5,5.289,3.05,8.1,4.66
				c58.15,33.29,58.06,37.689,58.01,40.609c-0.05,2.37-1.79,4.381-4.14,4.75c-0.42,0.061-20.82,3.261-50.5,8.25
				c1.5,13.41,2.27,27.07,2.27,40.65v238.33c0,75.12-22.85,147.12-66.09,208.229c-21.75,30.75-47.8,57.58-77.27,79.86
				c-2.271,4.54-4.841,8.689-7.38,10.909c-0.91,0.801-2.07,1.21-3.23,1.21c-0.65,0-1.31-0.119-1.93-0.39
				c-0.73-0.311-1.351-0.801-1.84-1.391c-23.931,16.3-49.87,29.74-77.421,39.979c-0.569,0.21-1.14,0.311-1.71,0.311
				c-0.18,0-0.359-0.03-0.54-0.04c-3.13,2.521-5.93,4.609-8.38,6.33C671.11,1015.114,671.63,1015.465,672.5,1016.034z
				 M673.92,154.365c0.09-0.43,0.22-0.85,0.43-1.26c0,0,0-0.01,0.011-0.01c-8.561-6.95-38.92-27.7-103.83-35.51l-1.641-0.16
				c-52.38-4.98-102.33,2.4-149.08,21.94c-0.83,0.75-1.88,1.18-2.97,1.26c-15.24,6.55-30.13,14.39-44.65,23.53
				c-60.28,42.58-106.84,94.21-138.16,207.64c-0.14,0.5-0.36,0.97-0.64,1.38l5.55,25.03c27.59-114.41,60.53-149.67,64.88-153.94
				c8.26-11.72,20.5-25.81,32.42-27.32c4.48-0.56,8.66,0.69,12.08,3.62c2.47,2.12,4.06,4.79,4.69,7.81
				c8.29-8.06,18.42-17.24,29.41-25.71c9.53-7.35,19.72-13.5,29.92-18.78c-2.16-1.53-3.72-3.51-4.68-5.56
				c-0.85-1.82-3.1-6.65-0.63-12.49c3.36-7.97,14.01-14.85,33.52-21.65c33.49-11.68,69.42-17.35,103.87-16.41
				c0.64,0.02,1.25,0.17,1.81,0.41c17.811-4.19,30.96-0.38,31.561-0.2c1.16,0.35,2.08,1.1,2.689,2.04c0.061,0.01,0.12,0,0.181,0.01
				c31.46,4.76,60.189,15.43,85.39,31.7c0.29,0.18,0.23,0.09,0.37,0.24c0.78,0.33,1.93-0.62,2.41-1.06
				C671.6,158.325,673.21,155.924,673.92,154.365z M725.06,851.404c1.74-7.689-0.479-15.63-5.939-21.319
				c-17.34-6.54-33.93-12.271-48.25-16.971c9.41,11.239,18.649,29.761,23.149,55.239l3.101,0.7c6.09,1.38,12.35,0.3,17.63-3.03
				C720.02,862.685,723.69,857.494,725.06,851.404z M720.42,133.814c4.67,0.53,8.37,1.26,11.29,2.09c-0.41-0.99-0.95-2.03-1.61-3.09
				c-3.51-2.22-7.06-4.41-10.659-6.51c-1.521-0.9-2.37-2.48-2.41-4.12c-2.72-1.23-5.88-2.34-9.59-3.25
				c-20.28-4.94-30.771-3.37-41.131,0.77c-7.659,3.07-12.109,6.28-14.64,8.7c15.25,6.84,24.62,13.54,29.47,17.58
				c0.011,0.01,0.011,0.01,0.021,0.01C688.48,139.834,701.93,131.725,720.42,133.814z M667.46,401.444
				c40.16-15.19,96.86-33.33,159.69-43.561c-2.95-1.229-6.24-2.41-9.62-2.97l-5.021-0.47c-18.49-0.891-104.279,13.029-219.12,65.88
				c-0.649,0.3-1.35,0.45-2.05,0.45c-0.689,0-1.38-0.15-2.03-0.44c-1.3-0.59-2.27-1.72-2.67-3.09
				c-0.029-0.11-3.33-11.17-8.989-16.84c-1.08-1.07-1.601-2.601-1.4-4.11s1.1-2.84,2.42-3.6c0.69-0.4,69.25-39.771,81.99-51.53
				c0.04-0.03,0.08-0.05,0.109-0.08c0.131-0.11,0.271-0.21,0.41-0.31c0.13-0.091,0.271-0.19,0.41-0.28
				c0.04-0.021,0.08-0.05,0.12-0.07c0.09-0.05,0.19-0.069,0.28-0.12c0.17-0.069,0.33-0.14,0.5-0.189c0.149-0.05,0.3-0.09,0.449-0.12
				c0.15-0.03,0.311-0.07,0.461-0.09c0.17-0.01,0.33-0.021,0.5-0.021c0.149-0.01,0.289-0.01,0.439,0c0.17,0.011,0.32,0.04,0.49,0.07
				c0.15,0.02,0.3,0.05,0.439,0.09c0.16,0.04,0.311,0.101,0.45,0.16c0.15,0.05,0.29,0.1,0.431,0.18c0.149,0.07,0.289,0.16,0.43,0.24
				c0.13,0.08,0.25,0.16,0.37,0.25c0.149,0.11,0.28,0.24,0.42,0.37c0.069,0.07,0.149,0.12,0.22,0.189c0.03,0.04,0.05,0.07,0.08,0.11
				c0.11,0.12,0.21,0.271,0.31,0.41c0.091,0.14,0.19,0.27,0.271,0.41c0.02,0.04,0.05,0.069,0.08,0.109l16.229,30.83
				c12.12-4.09,23.521-7.63,34.141-10.689c-17.931-6.391-27.69-22.351-30.98-37.601c-1.09-5.069-1.93-11.22-1.109-17.939
				c-24.931,20.42-79.66,61.06-145.44,84.279c10.82,7.11,27.45,21.83,37.59,49.221C590.78,434.325,623.1,418.214,667.46,401.444z
				 M701.01,279.555c8.4-9.13,17.12-19.33,21.07-25.74l-20.39-9.09c-2.44,9.95-8.131,30.92-17,51.22c1.739-1.46,3.26-2.76,4.55-3.88
				c0.189-0.32,0.42-0.62,0.689-0.89c2.28-2.3,4.851-4.96,7.54-7.82C698.55,282.095,699.72,280.825,701.01,279.555z M730.7,246.924
				c2.28,1.01,3.43,3.58,2.68,5.96c-1.21,3.79-4.96,9.36-9.63,15.3c12.19-2.99,24.6-2.74,32.66-2.05c0.28,0.02,0.54,0.08,0.8,0.15
				c2.1-1.15,4.34-1.94,6.67-2.12c9.56-0.76,20.15,7.64,24.3,11.33c3.75-0.65,10.21-1.13,14.49,2.08
				c1.51,1.13,10.23,6.9,20.52,13.65c2.54-4.96,4.381-9.96,4.391-12.07c-7.78-6.37-67.76-34.04-94.811-44.76
				c-24.619-9.77-36.47-14.28-49.22-18.29c-0.56,9.93-3.22,19.11-8.09,27.91c-0.7,1.26-1.88,2.09-3.18,2.39
				c-1.28,4.9-5.42,17.16-15.42,21.37c-0.101,0.04-0.2,0.06-0.29,0.09c-4.521,4.46-9.771,9.15-16.011,14.33l1.37,3.77
				c0.49,1.36,0.36,2.87-0.37,4.13c-0.729,1.25-1.97,2.12-3.39,2.37l-14.9,2.61c-0.33,0.73-0.819,1.4-1.5,1.92
				c-8.84,6.7-18.75,13.96-29.859,22.07c-56.34,41.14-209.79,143.35-234.88,160.029c5.23,6.95,9.19,13.5,12.11,19.71
				c37.23-23.91,39.97-26.739,50.1-37.21c1.9-1.96,4.05-4.189,6.72-6.85c1.51-1.51,3.83-1.87,5.729-0.88
				c1.9,0.989,2.931,3.109,2.561,5.21c-1.11,6.18-27.39,151.74-45.35,186.43c-0.87,1.67-2.57,2.649-4.36,2.649
				c-0.61,0-1.23-0.12-1.83-0.359c-4.27-1.721-38.99-15.771-50.65-21.5c-5.61,6.149-10.56,10.609-14.08,13.52
				c31.91,22.54,73.53,31.141,85.34,33.221c4-10.189,12.95-48.38,21.92-89.33c-0.17-1.181,0.1-2.369,0.729-3.351
				c4.63-21.21,9.221-42.97,13.101-61.819c0-0.69,0.12-1.4,0.43-2.07c4.43-21.53,7.87-38.99,9.27-47.01
				c4.421-25.26,6.641-37.94,30.891-35.061c13.05,1.551,27.42,13.551,42.689,35.67c3.181,4.601,6.051,9.15,8.54,13.301
				c0.841,0.699,1.431,1.67,1.65,2.8c2.44,4.17,4.42,7.82,5.86,10.54c17.25-11.86,35.47-22.44,53.909-31.84
				c0.25-0.16,0.521-0.301,0.811-0.41c85.479-43.4,175.54-61.55,196.12-65.3c60.479-11.79,125.699-22.49,150.51-26.471
				c-6.86-4.89-20.37-13.649-46.87-28.819c-9.81-5.62-18.33-10.57-25.72-14.931c-0.311,4.851-2.98,9.87-7.99,14.99
				c-5.11,5.21-8.41,8.59-10.6,10.83c11.939-1.55,24.05-2.79,36.26-3.63c2.7-0.181,5.04,1.859,5.229,4.56
				c0.181,2.7-1.859,5.04-4.56,5.221c-83.9,5.77-162.9,30.18-214.4,49.64c-55.899,21.12-92.369,41.14-92.739,41.34
				c-0.73,0.4-1.551,0.61-2.36,0.61c-0.62,0-1.23-0.12-1.82-0.351c-1.359-0.54-2.41-1.67-2.85-3.069
				c-13.45-42.261-43.82-54.08-44.12-54.19c-1.96-0.74-3.229-2.63-3.18-4.72s1.43-3.91,3.42-4.54
				c58.55-18.57,109.29-52.42,139.01-75.11c0.09-0.21,0.17-0.42,0.29-0.62c17.29-29.64,26.63-72.65,26.72-73.08
				c0.311-1.45,1.261-2.67,2.57-3.34c1.32-0.67,2.87-0.71,4.22-0.11L730.7,246.924z M733.28,318.975
				c-1.05-2.489,0.13-5.359,2.63-6.409c10.56-4.421,16.9-2.15,20.35,0.52c4.061,3.14,6.08,8.58,5.271,14.2
				c-0.8,5.609-4.23,10.24-8.95,12.09c-11.14,4.54-20.66,4.82-28.24,0.8c-9.34-4.95-12.01-14.53-12.6-17.35
				c-2.48-11.76,0.04-27.5,15.3-33.17c4.82-1.7,9.38-2.77,13.67-3.23c-0.04-0.88,0.13-1.77,0.58-2.59
				c0.45-0.83,2.479-4.42,5.61-8.32c-11.051-0.05-26.931,1.56-37.83,9.88c-0.351,0.33-0.681,0.65-1.011,0.98
				c-1.109,1.19-2.17,2.34-3.17,3.4c-10.3,12.15-9.569,23.96-7.58,33.18c1.66,7.72,9.37,32.75,38.971,32.75c0.189,0,0.37,0,0.56,0
				c8.29-0.48,20.62-1.23,27.74-9.59c4.86-5.7,6.729-14.48,5.56-26.09c-0.109-0.771-2.229-14.591-12.439-20.87
				c-6.79-4.18-15.99-4.271-27.33-0.28c-12.05,4.48-9.65,19.05-9.04,21.93c0.26,1.25,1.88,7.67,7.61,10.71
				c4.88,2.601,11.619,2.181,20-1.239c1.479-0.58,2.59-2.29,2.89-4.381c0.24-1.68-0.04-3.88-1.57-5.06
				c-1.939-1.5-5.8-1.22-10.569,0.78C737.19,322.654,734.32,321.475,733.28,318.975z M731.72,950.614
				c5.63-0.641,13.021-2.521,15.86-3.33c1.439-0.409,3-0.141,4.21,0.74c0.32,0.229,0.61,0.489,0.86,0.779
				c1.5-3.26,3.02-7.05,4.369-11.101c4.4-13.199,15.67-20.829,16.141-21.149c0.95-0.63,2.08-0.909,3.21-0.8
				c0,0,0.62,0.061,1.63,0.061c2.27,0,8.01-0.311,12.32-3.181c4.729-3.16,4.699-8.63,4.21-18.84l-0.021-0.37
				c-0.189-4.061,0.271-8.59,0.94-12.729c-1.3,0.771-2.101,1.159-2.3,1.25c-1.431,0.67-3.101,0.609-4.48-0.17
				c-2.27-1.28-4.95-1.979-7.53-1.979c-3.489,0-8.37,1.229-11.819,7.061c-1.42,2.409-2.061,5.109-1.891,8.01
				c0.28,4.96,2.73,8.84,2.761,8.88c1.46,2.25,0.84,5.261-1.391,6.75c-5.62,3.75-13.37,16.74-16.939,24.051
				c-0.601,1.229-1.681,2.149-2.99,2.54c0,0-3.82,1.311-8.09,5.97c-3.78,4.13-6.591,5.95-8.641,7.29
				C731.99,950.435,731.85,950.524,731.72,950.614z M733.72,835.715c1.9,5.66,2.271,11.811,0.9,17.851
				c-1.95,8.64-7.15,16.01-14.64,20.739c-0.48,0.301-0.961,0.58-1.45,0.851c5.3,2.55,9.77,6.45,13.04,11.2l16.59,3.43
				c3.32,0.75,6.58,0.79,9.77,0.149c0.48-2.84,1.46-5.54,2.95-8.06c3.62-6.131,9.17-10.131,15.63-11.431
				c1.03-6.87-1.029-13.78-5.67-18.99C758.66,845.885,746.11,840.614,733.72,835.715z M737.4,905.505
				c-0.04,2.68-2.221,4.83-4.9,4.83c-0.02,0-0.05,0-0.07,0c-2.699-0.04-4.87-2.261-4.83-4.971c0.15-10.96-7.51-20.67-18.22-23.09
				l-13.81-3.11c0.46,3.95,0.79,8.051,1.01,12.29c2.46-1.119,4.86-1.811,6.8-2.119c2.67-0.44,5.19,1.38,5.62,4.05
				c0.44,2.66-1.36,5.17-4.02,5.62c-0.54,0.09-11.82,2.17-11.601,11.38c0.16,6.529,4.3,12.601,4.34,12.66
				c1.561,2.21,1.021,5.27-1.189,6.83c-0.86,0.6-1.84,0.89-2.811,0.89c-1.55,0-3.06-0.729-4.02-2.09
				c-0.24-0.34-5.891-8.49-6.11-18.05c-0.12-4.761,1.28-8.591,3.45-11.62c0-0.04-0.01-0.07-0.01-0.101
				c-0.67-43.301-15.45-74.189-29.79-85.601c-6.63-5.271-12.2-8.03-15.521-9.38c-5.819-1.761-10.409-3.09-13.43-3.96
				c-0.18,4.439-0.3,8.88-0.38,13.21c0.689-0.05,1.39,0.021,2.08,0.271c1.58,0.58,38.77,14.771,41.58,67.189
				c0.5,9.271,0.38,23.3,0.14,35.109c3.41,1.24,6.311,3.551,9.09,7.721c3.811,5.72,5.45,8.021,5.471,8.05
				c1.569,2.2,1.06,5.261-1.15,6.83c-0.86,0.62-1.85,0.91-2.84,0.91c-1.53,0-3.03-0.71-3.99-2.051c-0.07-0.101-1.72-2.42-5.64-8.3
				c-2.66-3.979-4.25-4.681-10.631-4.681c-7.56,0-19.68-2.271-20.189-2.37c-2.66-0.5-4.4-3.069-3.9-5.729
				c0.5-2.65,3.07-4.4,5.721-3.9c0.119,0.021,11.619,2.181,18.279,2.2c0.221-11.431,0.32-24.641-0.14-33.261
				c-2.21-41.26-27.96-55.289-33.97-58.01c-0.03,16.689,0.64,30.569,1.619,35.471c0.53,2.649-1.189,5.229-3.85,5.76
				c-0.32,0.069-0.64,0.101-0.96,0.101c-2.29,0-4.34-1.609-4.8-3.939c-2.74-13.71-2.88-74.811,2.93-105.761
				c6.42-34.229,39.01-43.979,55.351-44.351c2.689-0.06,6.05-0.08,9.949-0.119c15.87-0.12,42.44-0.33,54.9-3.631
				c8.9-2.369,11.49-10.42,8.93-27.8c-0.739-5.08-1.979-8.021-2.859-9.569c-0.12-0.2-0.57-0.881-1.7-2.301
				c-0.92-1.479-1-3.87-0.18-5.859c0.369-1.17,1.17-2.109,2.18-2.7c0.03-0.021,0.05-0.04,0.08-0.061
				c0.12-0.06,0.229-0.119,0.359-0.18c0.07-0.04,0.141-0.08,0.23-0.12l-0.01,0.03c0.75-0.301,1.569-0.431,2.42-0.33
				c4.41,0.55,11.979,0.779,14.99-0.42c0.72-0.29,1.279-2.261,0.63-6.351c-0.32-1.551-0.87-2.67-0.87-2.67
				c-2.73-5.45-9.86-8.631-14.891-8.41c-6.34,0.25-28.59-1.74-37.409-4.479c-2.58-0.801-4.03-3.54-3.23-6.13
				c0.63-2.03,2.46-3.341,4.47-3.431l-0.06-0.029c0,0,2.06,0.069,3.92-0.011c16.2-1.029,42.04-14.239,49.41-18.17
				c-1.681-11.04,6.109-18.471,6.46-18.79c1.24-1.149,3-1.59,4.63-1.141l10.33,2.82c14.28,1.04,16.689-3.891,17.92-9.04
				c0.93-4.33-5.89-26.82-12.73-45.17c-0.04-0.11-0.079-0.229-0.109-0.34c-1.44-4.91-3-10.13-4.57-15.38
				c-7.37-24.59-12.22-41.3-12.29-48.55c-0.8-12.561-1.79-47.381-2.149-60.511c-21.19,4.45-58.5,13.37-100.95,28.351
				c0,1.02-0.311,2.04-0.96,2.91c-0.71,0.949-17.521,23.229-30.341,29.55c-1.1,0.54-2.369,1.17-3.819,1.819
				c-0.061,0.061-0.11,0.12-0.17,0.171c-5.521,4.449-20.78,17.92-25.16,26.68l-0.84,1.689c-4.97,10.021-9.261,18.671-24.94,22.45
				c-3.82,0.92-7.97,1.26-12.37,1.61c-13.02,1.04-27.79,2.22-42.43,18.91c-0.07,0.08-0.15,0.159-0.22,0.239
				c-1.681,1.67-3.87,3.44-6.49,5.11c1.79,2.43,5.7,6.97,10.89,8.64c2.58,0.83,4,3.591,3.17,6.17c-0.67,2.08-2.59,3.4-4.67,3.4
				c-0.489,0-1-0.07-1.5-0.24c-8.97-2.88-14.88-10.729-16.77-13.569c-3.51,1.311-7.43,2.319-11.69,2.811
				c-0.6,0.569-1.34,1.01-2.199,1.22c-0.101,0.03-3.74,0.95-8.15,2.971c4.06,6.18,17.89,25.51,33.97,29.141
				c6.141,1.39,11.83,0.289,17.391-3.352c6.279-5.63,7.77-9.829,7.939-10.359l-0.01,0.061l9.58,2.08
				c-0.16,0.74-1.84,7.439-11.26,15.78c-0.16,0.149-0.341,0.279-0.521,0.399c-4.61,3.09-9.439,4.93-14.42,5.529
				c0.45,5.551,3.86,27.49,29.63,50.101c2.03,1.79,2.23,4.88,0.45,6.92c-0.97,1.101-2.33,1.67-3.69,1.67
				c-1.14,0-2.3-0.409-3.229-1.22c-30-26.341-32.78-52.07-33.01-57.841c-0.341-0.069-0.69-0.13-1.03-0.21
				c-20.061-4.54-35.82-26.85-40.22-33.649c-4.891,3.899-8.631,9.359-7.21,16.681c5.649,29.319-7.301,53.689-7.86,54.72
				c-0.22,0.41-0.49,0.78-0.8,1.09c1.26,25.562-5.601,51.761-32.761,80.94c-3.989,4.22-8.319,8.04-13.609,11.449
				c0.29,0.33,0.55,0.689,0.75,1.101c0.46,0.99,11.22,24.45,1.609,40.75c-5.039,8.54-14.379,13.33-27.77,14.25
				c-1.91,0.11-2.27,0.729-2.44,1.021c-1.97,3.449,1.11,13.689,4.35,20.591c9.1,4.93,63.57,34.06,141.97,67.659
				c67.43,29.83,75.11,33.989,75.4,34.149c2.37,1.311,3.22,4.29,1.91,6.66c-0.891,1.62-2.57,2.53-4.29,2.53
				c-0.801,0-1.62-0.2-2.37-0.62c-0.29-0.15-8.62-4.561-74.561-33.729c-61.83-26.5-108.899-50.261-130.729-61.671
				c-0.08,0.37-0.16,0.75-0.26,1.12c-1.07,3.91-3.86,8.4-8.67,12.721c36.08,16.63,187.59,86.489,200.72,93.22
				c5.739,2.931,15.92,7.091,30.25,12.381c2.12-14.91,14.109-15.771,18.109-16.061c15.141-1.08,22.721,9.84,23.03,10.311
				c1.521,2.239,0.93,5.29-1.31,6.8c-2.23,1.521-5.25,0.939-6.78-1.271c-0.24-0.341-4.91-6.729-14.24-6.061
				c-4.91,0.351-8.439,1.149-9.2,8.37c-1.29,12.271-2.92,17.95-13.08,20.859c-0.449,0.12-0.899,0.189-1.35,0.189
				c-2.13,0-4.1-1.41-4.71-3.56c-0.74-2.602,0.76-5.32,3.37-6.062c2.53-0.72,3.77-1.08,4.62-3.649
				c-5.73-2.101-10.83-4.029-15.33-5.8l-3.4,6.38c-6.68,13.891-3.71,30.37,7.4,41.03c3.979-0.841,6.66-2.461,11.52-5.891
				c8.99-6.33,16.08-9.16,22.98-9.16c8.05,0,15.01,4.051,22.03,8.561c0.899,0.569,1.56,1.431,1.93,2.41
				c6.25-2.62,12.399-5.41,18.439-8.37l-2.829-0.229c-2.7-0.21-4.711-2.58-4.5-5.271c0.22-2.699,2.6-4.71,5.279-4.5l10.16,0.811
				l4.67-4.181l-2.54-4.061l-7.13-8.56c-1.47-1.761-1.52-4.301-0.13-6.11l6.37-8.34c1.64-2.141,4.72-2.561,6.87-0.91
				c2.149,1.641,2.56,4.721,0.909,6.87l-3.989,5.22l4.85,5.82c0.14,0.17,0.271,0.35,0.39,0.54l4.9,7.84
				c0.41,0.66,0.63,1.391,0.7,2.12c5.97-3.521,11.81-7.221,17.53-11.07c-3.34,0.61-6.82,1.08-9.65,1.08
				c-5.01,0-8.2-1.569-9.479-4.649c-2-4.819,2.399-9.229,4.05-10.891c1.29-1.29,2.609-2.149,3.88-2.979
				c1.79-1.16,3.82-2.48,6.76-5.69c4.09-4.46,8.01-6.779,10.351-7.88c2.369-4.62,8.909-16.63,16.039-23.43
				c-0.609-1.461-1.229-3.261-1.68-5.312c-1.6,0.23-3.22,0.36-4.84,0.36c-2.46,0-4.92-0.271-7.33-0.811l-9.6-1.979
				C737.12,900.005,737.44,902.725,737.4,905.505z"/>
            <path fill="#003399" d="M707.85,931.664c-0.27-1.399-1.38-8.579,2.48-12.811c1.9-2.079,4.63-3.069,7.7-2.77
				c3.17,0.3,5.83,1.069,7.97,1.689c1.93,0.561,3.75,1.09,4.4,0.76c2.42-1.21,5.369-0.229,6.58,2.189c1.21,2.419,0.22,5.37-2.2,6.58
				c-4.08,2.04-8.03,0.891-11.511-0.12c-1.819-0.529-3.699-1.069-5.81-1.31c-0.22,0.979-0.2,2.81,0.021,3.979
				c0.5,2.66-1.25,5.221-3.91,5.721c-0.311,0.061-0.61,0.09-0.91,0.09C710.34,935.664,708.29,934.015,707.85,931.664z"/>
            <path fill="#003399" d="M780.29,902.175c-3.521,0-6.37-2.859-6.37-6.37c0-3.521,2.85-6.37,6.37-6.37c3.52,0,6.37,2.851,6.37,6.37
				C786.66,899.314,783.81,902.175,780.29,902.175z"/>
            <path fill="#003399" d="M739.82,591.614c-2.75-1.87-6.061-5.55-6.23-12.489c-0.28-12.431,14.09-22.04,15.73-23.101
				c0.949-0.61,2.029-0.83,3.069-0.74c1.75-0.141,3.511,0.64,4.521,2.209c1.46,2.271,0.81,5.301-1.46,6.771
				c-2.97,1.92-11.38,8.729-11.24,14.641c0.08,3.34,1.48,4.29,1.94,4.609c0.899,0.61,2.09,0.899,3.3,0.96
				c0.979-0.04,1.93-0.22,2.7-0.5c0.71-0.26,1.439-0.34,2.14-0.271c2.13-0.159,4.2,1.07,4.97,3.171
				c0.94,2.539-0.359,5.359-2.899,6.289c-1.78,0.66-4.07,1.131-6.511,1.131c-0.159,0-0.33-0.011-0.489-0.021
				c-0.11,0-0.221,0.021-0.33,0.021C745.99,594.295,742.7,593.574,739.82,591.614z"/>
            <path fill="#003399" d="M816.79,310.305c2.37,1.32,3.2,4.311,1.88,6.67c-0.9,1.601-2.56,2.5-4.28,2.511
				c-0.81,0-1.63-0.21-2.39-0.63c-0.521-0.301-11.78-6.61-17.51-9.921c-0.4,0.521-0.82,1.141-1.08,1.521
				c-0.641,0.939-1.19,1.76-1.95,2.43c-2.03,1.79-5.13,1.59-6.92-0.439c-1.72-1.96-1.601-4.9,0.22-6.71
				c0.16-0.2,0.34-0.48,0.54-0.78c4.11-6.061,8.36-7.86,12.65-5.35C802.8,302.444,816.66,310.225,816.79,310.305z"/>
            <path fill="#003399" d="M695.6,961.085c0.341,1.319,0.11,2.71-0.619,3.85l-4.421,6.87c-0.93,1.45-2.51,2.25-4.119,2.25
				c-0.91,0-1.83-0.26-2.65-0.779c-2.271-1.471-2.93-4.5-1.47-6.78l1.58-2.449l-9.631-5.311c-2.369-1.301-3.229-4.28-1.92-6.649
				c1.311-2.37,4.29-3.24,6.66-1.931l14.21,7.84C694.41,958.654,695.27,959.774,695.6,961.085z"/>
            <path fill="#003399" d="M692.64,491.674c19.271,5.37,37.94,8.83,42.011,6.54c6.83-3.84,7.989-17.59,7.17-22.96
				c-6.471,0.72-14.96,2.59-24.9,6.97C707.01,486.665,698.96,489.654,692.64,491.674z M672.82,495.674
				c-2.07-0.53-3.63-2.359-3.69-4.609c-0.08-2.7,2.061-4.95,4.76-5.03c0.08,0,11.99-0.641,39.051-12.771
				c15.67-6.909,28.3-8.27,36.06-8.21c-1.4-2.84-3.09-5.529-4.77-6.81c-2.87-2.19-17.711-0.16-30.591,6.479
				c-7.43,3.83-13.22,6.41-21.22,9.971l-2.05,0.92c-2.46,1.1-5.36-0.01-6.47-2.48c-1.101-2.479,0.01-5.37,2.479-6.479l2.05-0.91
				c7.86-3.5,13.53-6.021,20.721-9.73c8.069-4.159,20.069-8.149,29.609-8.35c-0.03-0.01-0.06-0.02-0.1-0.03
				c5.439-0.31,9.13,1.15,9.13,1.15s0,0.02-0.021,0.05c0.131,0.05,0.271,0.08,0.4,0.14l24.22,11.101c2.46,1.13,3.54,4.04,2.42,6.5
				c-0.83,1.8-2.6,2.859-4.46,2.859c-0.689,0-1.38-0.149-2.04-0.449l-8.6-3.94c0.85,2.11,1.36,3.7,1.49,4.15
				c0.53,1.68,0.1,3.51-1.101,4.8c-0.33,0.35-0.699,0.63-1.1,0.87c-0.53,0.33-2.55,1.609-3.43,2.42l-2.78,2.92
				c0,0-0.97,1.05-1.13,2.92c-0.25,2.69-0.73,5.45-1.45,8.06c-2.04,7.381-5.76,12.761-10.76,15.57c-1.69,0.95-4.34,1.88-9.55,1.88
				c-5.761,0-14.631-1.13-28.75-4.609c-14.091-3.471-26.65-7.601-27.17-7.771C673.55,496.115,673.18,495.904,672.82,495.674z"/>
         </g>
      </g>
   </g>
</svg>
